<svg width="267" height="155" viewBox="0 0 267 155" fill="none" xmlns="http://www.w3.org/2000/svg">
<g filter="url(#filter0_d)">
<rect x="8.05804" y="69.9387" width="92.1138" height="92.1138" rx="19.958" transform="rotate(-45 8.05804 69.9387)" fill="url(#paint0_linear)"/>
</g>
<g filter="url(#filter1_di)">
<path d="M50.2888 50.4596C50.5276 49.6151 50.9787 48.8459 51.5993 48.2253C52.2198 47.6048 52.989 47.1536 53.8335 46.9149L79.1767 39.8689C79.973 39.6504 80.8127 39.6447 81.6118 39.8526C82.4109 40.0605 83.1415 40.4745 83.7304 41.0533L102.082 59.4046C102.678 60.0209 103.097 60.7868 103.295 61.6214C103.492 62.456 103.46 63.3285 103.203 64.1467L96.1703 89.3859C95.9235 90.2427 95.4517 91.0177 94.8039 91.6304C94.1562 92.2431 93.3562 92.6711 92.487 92.87L84.8477 94.914C84.3349 95.1101 83.7874 95.1992 83.2389 95.176C83.1674 94.6932 83.5009 94.2904 83.6784 93.8703C84.1051 92.9695 84.4465 92.0307 84.6983 91.0662C84.7297 90.9445 84.7968 90.8349 84.891 90.7516C84.9851 90.6682 85.102 90.6149 85.2266 90.5985C87.3941 90.0117 89.5746 89.4595 91.7443 88.8576C92.2099 88.7342 92.2813 88.208 92.3939 87.8182C94.6892 79.5524 96.9895 71.2902 99.2949 63.0315C99.3421 62.8903 99.3456 62.7381 99.3051 62.5948C99.2645 62.4515 99.1817 62.3238 99.0675 62.2282C93.019 56.171 86.9661 50.1167 80.9089 44.0653C80.8008 43.9382 80.6557 43.848 80.4938 43.8072C80.332 43.7665 80.1615 43.7772 80.006 43.838C71.6247 46.1794 63.2434 48.518 54.862 50.8537C54.7051 50.8828 54.5607 50.9589 54.4479 51.0717C54.335 51.1846 54.259 51.329 54.2298 51.4859C51.8898 59.8658 49.5534 68.2464 47.2206 76.6277C47.1579 76.7825 47.1458 76.9532 47.1858 77.1153C47.2259 77.2775 47.3161 77.4228 47.4436 77.5307L65.6043 95.6914C65.6997 95.8051 65.8276 95.8868 65.9709 95.9255C66.1141 95.9642 66.2658 95.9581 66.4055 95.9079C68.6459 95.2901 70.8856 94.6672 73.1245 94.0392C73.7671 93.8876 74.3704 93.6021 74.895 93.2014C75.4196 92.8006 75.8537 92.2937 76.169 91.7137C76.4114 91.1789 76.4845 90.5828 76.3784 90.0054C76.2724 89.4279 75.9923 88.8967 75.5757 88.483C69.5626 82.4568 63.5321 76.448 57.5254 70.424C57.4601 70.3616 57.4087 70.2861 57.3745 70.2025C57.3403 70.1189 57.3241 70.029 57.3269 69.9387C57.3298 69.8484 57.3516 69.7597 57.3911 69.6784C57.4305 69.5972 57.4866 69.5251 57.5557 69.4669C58.24 68.774 58.9221 68.0833 59.6215 67.4055C59.6915 67.3418 59.7741 67.2935 59.8641 67.2639C59.954 67.2343 60.0491 67.2239 60.1433 67.2335C60.2375 67.2431 60.3286 67.2725 60.4107 67.3196C60.4928 67.3668 60.564 67.4308 60.6197 67.5073C66.674 73.5659 72.7391 79.6137 78.7826 85.6789C79.6518 86.4557 80.2966 87.4516 80.6496 88.5626C81.0027 89.6736 81.0511 90.859 80.7899 91.9952C80.2915 93.363 79.4817 94.596 78.4245 95.5968C77.3673 96.5976 76.0918 97.3387 74.6987 97.7615C72.3385 98.5496 69.9133 99.1256 67.525 99.825C66.707 100.082 65.8346 100.114 65.0002 99.9161C64.1658 99.7183 63.4004 99.2985 62.785 98.7012L44.4338 80.3499C43.8428 79.7497 43.4231 79.0023 43.2182 78.1852C43.0134 77.3682 43.0309 76.5112 43.2688 75.7031C45.6117 67.2886 47.9524 58.8734 50.291 50.4574L50.2888 50.4596Z" fill="#06BE5B"/>
<path d="M67.6919 58.4778C69.7617 55.7939 72.547 53.7486 75.7274 52.5772C76.9863 52.2591 78.3065 52.2754 79.5572 52.6244C80.8079 52.9734 81.9457 53.6431 82.8579 54.5672C82.9423 54.7125 82.9715 54.8834 82.94 55.0484C82.9086 55.2135 82.8187 55.3617 82.6869 55.4658C82.0048 56.1479 81.3335 56.8365 80.6406 57.5034C80.5013 57.6266 80.3208 57.6932 80.1349 57.6899C79.9489 57.6867 79.7709 57.614 79.6359 57.4861C79.1141 57.1188 78.5186 56.8695 77.8908 56.7555C77.263 56.6414 76.6179 56.6654 76.0003 56.8256C74.1913 57.6057 72.5929 58.8034 71.3361 60.3205C70.2822 61.3109 69.523 62.5737 69.1426 63.9691C69.0741 64.5121 69.1773 65.0628 69.4379 65.544C69.6986 66.0253 70.1034 66.4127 70.5956 66.652C71.334 66.953 72.1005 66.5199 72.7458 66.1821C76.3143 64.0947 79.2375 61.0243 82.9813 59.2249C83.7425 58.7951 84.592 58.5453 85.4646 58.4947C86.3373 58.444 87.21 58.5938 88.0158 58.9325C89.1052 59.4662 90.0412 60.268 90.7359 61.2626C91.4305 62.2573 91.861 63.4121 91.987 64.6187C92.0251 66.6119 91.4399 68.5672 90.3132 70.2118C88.8754 72.383 87.1032 74.3131 85.0622 75.9305C83.206 77.5851 80.8892 78.6344 78.4211 78.9381C77.3677 78.9827 76.3174 78.7941 75.3453 78.3857C74.3732 77.9773 73.5033 77.3593 72.7977 76.5757C72.6919 76.4427 72.6428 76.2733 72.6611 76.1043C72.6793 75.9352 72.7634 75.7802 72.8952 75.6728C73.5751 74.9799 74.2572 74.2935 74.9523 73.6157C75.0146 73.5511 75.0891 73.4994 75.1715 73.4638C75.254 73.4281 75.3426 73.4091 75.4324 73.4079C75.5222 73.4067 75.6114 73.4233 75.6947 73.4567C75.778 73.4902 75.8539 73.5398 75.918 73.6027C76.3762 73.9935 76.9097 74.2861 77.4855 74.4627C78.0613 74.6392 78.6671 74.6958 79.2656 74.6291C81.4555 73.8837 83.3939 72.5421 84.863 70.7553C86.3301 69.4963 87.3578 67.8027 87.7971 65.9201C87.8037 65.3917 87.6721 64.8707 87.4154 64.4089C87.1586 63.947 86.7856 63.5603 86.3333 63.287C85.5581 62.8496 84.6443 63.2004 83.9168 63.5599C80.24 65.4697 77.5333 68.8173 73.7721 70.5864C73.0221 70.9961 72.1921 71.2383 71.3394 71.2963C70.4867 71.3542 69.6316 71.2265 68.833 70.922C67.6929 70.417 66.7175 69.6022 66.0177 68.5701C65.3179 67.5381 64.9219 66.3303 64.8747 65.0843C65.0275 62.624 66.0223 60.2913 67.6919 58.4778Z" fill="#06BE5B"/>
</g>
<g filter="url(#filter2_d)">
<rect x="193.866" y="4.69148" width="92.1138" height="92.1138" rx="19.958" transform="rotate(45 193.866 4.69148)" fill="url(#paint1_linear)"/>
</g>
<g filter="url(#filter3_di)">
<path d="M196.437 34.6876L229.004 67.2547L192.602 97.7329L175.465 88.1551L165.963 71.0914L196.437 34.6876ZM216.096 68.0348L195.661 47.5904L191.925 51.9869L207.624 67.692L203.017 71.5086L192.719 61.2112L189.101 65.5736L198.689 75.1608L192.657 80.0567L186.898 76.7907L183.57 70.9503L186.55 67.3865L182.503 63.3389L176.974 69.767L182.808 80.8833L193.513 86.8431L216.095 68.0363L216.096 68.0348Z" fill="#13A9FE"/>
</g>
<g filter="url(#filter4_d)">
<rect x="87.6981" y="4.69148" width="92.1138" height="92.1138" rx="19.958" fill="url(#paint2_linear)"/>
</g>
<g style="mix-blend-mode:overlay" opacity="0.5" filter="url(#filter5_f)">
<g clip-path="url(#clip0)">
<path d="M122.166 86.3658C127.461 86.3658 131.759 81.6659 131.759 75.8751V65.3843H122.166C116.87 65.3843 112.573 70.0842 112.573 75.8751C112.573 81.6659 116.87 86.3658 122.166 86.3658Z" fill="black"/>
<path d="M112.573 54.8937C112.573 49.1028 116.87 44.4029 122.166 44.4029H131.759V65.3844H122.166C116.87 65.3844 112.573 60.6846 112.573 54.8937Z" fill="black"/>
<path d="M112.575 33.9121C112.575 28.1212 116.872 23.4213 122.168 23.4213H131.761V44.4028H122.168C116.872 44.4028 112.575 39.7029 112.575 33.9121Z" fill="black"/>
<path d="M131.759 23.4214H141.352C146.648 23.4214 150.946 28.1212 150.946 33.9121C150.946 39.703 146.648 44.4029 141.352 44.4029H131.759V23.4214Z" fill="black"/>
<path d="M150.946 54.8937C150.946 60.6846 146.648 65.3844 141.352 65.3844C136.057 65.3844 131.759 60.6846 131.759 54.8937C131.759 49.1028 136.057 44.4029 141.352 44.4029C146.648 44.4029 150.946 49.1028 150.946 54.8937Z" fill="black"/>
</g>
</g>
<g filter="url(#filter6_iiiii)">
<g clip-path="url(#clip1)">
<path d="M123.087 82.3742C128.891 82.3742 133.601 77.6743 133.601 71.8835V61.3927H123.087C117.283 61.3927 112.573 66.0926 112.573 71.8835C112.573 77.6743 117.283 82.3742 123.087 82.3742Z" fill="#0ACF83"/>
<path d="M112.573 50.9021C112.573 45.1112 117.283 40.4113 123.087 40.4113H133.601V61.3928H123.087C117.283 61.3928 112.573 56.693 112.573 50.9021Z" fill="#A259FF"/>
<path d="M112.574 29.9206C112.574 24.1297 117.285 19.4298 123.089 19.4298H133.603V40.4113H123.089C117.285 40.4113 112.574 35.7114 112.574 29.9206Z" fill="#F24E1E"/>
<path d="M133.601 19.4298H144.116C149.92 19.4298 154.63 24.1296 154.63 29.9205C154.63 35.7114 149.92 40.4112 144.116 40.4112H133.601V19.4298Z" fill="#FF7262"/>
<path d="M154.63 50.9021C154.63 56.693 149.92 61.3928 144.116 61.3928C138.312 61.3928 133.601 56.693 133.601 50.9021C133.601 45.1112 138.312 40.4113 144.116 40.4113C149.92 40.4113 154.63 45.1112 154.63 50.9021Z" fill="#1ABCFE"/>
</g>
</g>
<defs>
<filter id="filter0_d" x="0.972626" y="10.0008" width="144.439" height="144.439" filterUnits="userSpaceOnUse" color-interpolation-filters="sRGB">
<feFlood flood-opacity="0" result="BackgroundImageFix"/>
<feColorMatrix in="SourceAlpha" type="matrix" values="0 0 0 0 0 0 0 0 0 0 0 0 0 0 0 0 0 0 127 0"/>
<feOffset dy="12.2818"/>
<feGaussianBlur stdDeviation="7.67615"/>
<feColorMatrix type="matrix" values="0 0 0 0 0 0 0 0 0 0 0 0 0 0 0 0 0 0 0.25 0"/>
<feBlend mode="normal" in2="BackgroundImageFix" result="effect1_dropShadow"/>
<feBlend mode="normal" in="SourceGraphic" in2="effect1_dropShadow" result="shape"/>
</filter>
<filter id="filter1_di" x="38.2284" y="34.8527" width="70.0422" height="70.0398" filterUnits="userSpaceOnUse" color-interpolation-filters="sRGB">
<feFlood flood-opacity="0" result="BackgroundImageFix"/>
<feColorMatrix in="SourceAlpha" type="matrix" values="0 0 0 0 0 0 0 0 0 0 0 0 0 0 0 0 0 0 127 0"/>
<feOffset/>
<feGaussianBlur stdDeviation="2.42405"/>
<feColorMatrix type="matrix" values="0 0 0 0 0 0 0 0 0 0 0 0 0 0 0 0 0 0 0.25 0"/>
<feBlend mode="normal" in2="BackgroundImageFix" result="effect1_dropShadow"/>
<feBlend mode="normal" in="SourceGraphic" in2="effect1_dropShadow" result="shape"/>
<feColorMatrix in="SourceAlpha" type="matrix" values="0 0 0 0 0 0 0 0 0 0 0 0 0 0 0 0 0 0 127 0" result="hardAlpha"/>
<feOffset dy="4.84809"/>
<feGaussianBlur stdDeviation="2.42405"/>
<feComposite in2="hardAlpha" operator="arithmetic" k2="-1" k3="1"/>
<feColorMatrix type="matrix" values="0 0 0 0 0.054902 0 0 0 0 0.913725 0 0 0 0 0.780392 0 0 0 0.4 0"/>
<feBlend mode="normal" in2="shape" result="effect2_innerShadow"/>
</filter>
<filter id="filter2_d" x="121.646" y="9.8879" width="144.439" height="144.439" filterUnits="userSpaceOnUse" color-interpolation-filters="sRGB">
<feFlood flood-opacity="0" result="BackgroundImageFix"/>
<feColorMatrix in="SourceAlpha" type="matrix" values="0 0 0 0 0 0 0 0 0 0 0 0 0 0 0 0 0 0 127 0"/>
<feOffset dy="12.2818"/>
<feGaussianBlur stdDeviation="7.67615"/>
<feColorMatrix type="matrix" values="0 0 0 0 0 0 0 0 0 0 0 0 0 0 0 0 0 0 0.25 0"/>
<feBlend mode="normal" in2="BackgroundImageFix" result="effect1_dropShadow"/>
<feBlend mode="normal" in="SourceGraphic" in2="effect1_dropShadow" result="shape"/>
</filter>
<filter id="filter3_di" x="159.903" y="28.6275" width="75.1609" height="75.1656" filterUnits="userSpaceOnUse" color-interpolation-filters="sRGB">
<feFlood flood-opacity="0" result="BackgroundImageFix"/>
<feColorMatrix in="SourceAlpha" type="matrix" values="0 0 0 0 0 0 0 0 0 0 0 0 0 0 0 0 0 0 127 0"/>
<feOffset/>
<feGaussianBlur stdDeviation="3.03006"/>
<feColorMatrix type="matrix" values="0 0 0 0 0 0 0 0 0 0 0 0 0 0 0 0 0 0 0.25 0"/>
<feBlend mode="normal" in2="BackgroundImageFix" result="effect1_dropShadow"/>
<feBlend mode="normal" in="SourceGraphic" in2="effect1_dropShadow" result="shape"/>
<feColorMatrix in="SourceAlpha" type="matrix" values="0 0 0 0 0 0 0 0 0 0 0 0 0 0 0 0 0 0 127 0" result="hardAlpha"/>
<feOffset dy="4.84809"/>
<feGaussianBlur stdDeviation="2.42405"/>
<feComposite in2="hardAlpha" operator="arithmetic" k2="-1" k3="1"/>
<feColorMatrix type="matrix" values="0 0 0 0 0.133333 0 0 0 0 0.862745 0 0 0 0 0.996078 0 0 0 0.4 0"/>
<feBlend mode="normal" in2="shape" result="effect2_innerShadow"/>
</filter>
<filter id="filter4_d" x="70.9065" y="0.181745" width="125.697" height="125.697" filterUnits="userSpaceOnUse" color-interpolation-filters="sRGB">
<feFlood flood-opacity="0" result="BackgroundImageFix"/>
<feColorMatrix in="SourceAlpha" type="matrix" values="0 0 0 0 0 0 0 0 0 0 0 0 0 0 0 0 0 0 127 0"/>
<feOffset dy="12.2818"/>
<feGaussianBlur stdDeviation="8.39579"/>
<feColorMatrix type="matrix" values="0 0 0 0 0 0 0 0 0 0 0 0 0 0 0 0 0 0 0.35 0"/>
<feBlend mode="normal" in2="BackgroundImageFix" result="effect1_dropShadow"/>
<feBlend mode="normal" in="SourceGraphic" in2="effect1_dropShadow" result="shape"/>
</filter>
<filter id="filter5_f" x="109.498" y="20.3509" width="44.5217" height="69.0853" filterUnits="userSpaceOnUse" color-interpolation-filters="sRGB">
<feFlood flood-opacity="0" result="BackgroundImageFix"/>
<feBlend mode="normal" in="SourceGraphic" in2="BackgroundImageFix" result="shape"/>
<feGaussianBlur stdDeviation="1.53523" result="effect1_foregroundBlur"/>
</filter>
<filter id="filter6_iiiii" x="112.569" y="10.2184" width="42.0653" height="78.2967" filterUnits="userSpaceOnUse" color-interpolation-filters="sRGB">
<feFlood flood-opacity="0" result="BackgroundImageFix"/>
<feBlend mode="normal" in="SourceGraphic" in2="BackgroundImageFix" result="shape"/>
<feColorMatrix in="SourceAlpha" type="matrix" values="0 0 0 0 0 0 0 0 0 0 0 0 0 0 0 0 0 0 127 0" result="hardAlpha"/>
<feOffset dy="6.14092"/>
<feGaussianBlur stdDeviation="6.14092"/>
<feComposite in2="hardAlpha" operator="arithmetic" k2="-1" k3="1"/>
<feColorMatrix type="matrix" values="0 0 0 0 1 0 0 0 0 1 0 0 0 0 1 0 0 0 0.5 0"/>
<feBlend mode="overlay" in2="shape" result="effect1_innerShadow"/>
<feColorMatrix in="SourceAlpha" type="matrix" values="0 0 0 0 0 0 0 0 0 0 0 0 0 0 0 0 0 0 127 0" result="hardAlpha"/>
<feOffset dy="-9.21138"/>
<feGaussianBlur stdDeviation="9.21138"/>
<feComposite in2="hardAlpha" operator="arithmetic" k2="-1" k3="1"/>
<feColorMatrix type="matrix" values="0 0 0 0 0 0 0 0 0 0 0 0 0 0 0 0 0 0 0.5 0"/>
<feBlend mode="overlay" in2="effect1_innerShadow" result="effect2_innerShadow"/>
<feColorMatrix in="SourceAlpha" type="matrix" values="0 0 0 0 0 0 0 0 0 0 0 0 0 0 0 0 0 0 127 0" result="hardAlpha"/>
<feOffset dy="1.53523"/>
<feGaussianBlur stdDeviation="2.30284"/>
<feComposite in2="hardAlpha" operator="arithmetic" k2="-1" k3="1"/>
<feColorMatrix type="matrix" values="0 0 0 0 1 0 0 0 0 1 0 0 0 0 1 0 0 0 0.7 0"/>
<feBlend mode="overlay" in2="effect2_innerShadow" result="effect3_innerShadow"/>
<feColorMatrix in="SourceAlpha" type="matrix" values="0 0 0 0 0 0 0 0 0 0 0 0 0 0 0 0 0 0 127 0" result="hardAlpha"/>
<feOffset dy="-12.2818"/>
<feGaussianBlur stdDeviation="3.07046"/>
<feComposite in2="hardAlpha" operator="arithmetic" k2="-1" k3="1"/>
<feColorMatrix type="matrix" values="0 0 0 0 0 0 0 0 0 0 0 0 0 0 0 0 0 0 0.15 0"/>
<feBlend mode="overlay" in2="effect3_innerShadow" result="effect4_innerShadow"/>
<feColorMatrix in="SourceAlpha" type="matrix" values="0 0 0 0 0 0 0 0 0 0 0 0 0 0 0 0 0 0 127 0" result="hardAlpha"/>
<feOffset dy="6.14092"/>
<feGaussianBlur stdDeviation="3.07046"/>
<feComposite in2="hardAlpha" operator="arithmetic" k2="-1" k3="1"/>
<feColorMatrix type="matrix" values="0 0 0 0 1 0 0 0 0 1 0 0 0 0 1 0 0 0 0.25 0"/>
<feBlend mode="overlay" in2="effect4_innerShadow" result="effect5_innerShadow"/>
</filter>
<linearGradient id="paint0_linear" x1="54.1149" y1="69.9387" x2="54.1149" y2="162.052" gradientUnits="userSpaceOnUse">
<stop stop-color="#292929"/>
<stop offset="1" stop-color="#121212" stop-opacity="0.94"/>
</linearGradient>
<linearGradient id="paint1_linear" x1="239.923" y1="4.69148" x2="239.923" y2="96.8053" gradientUnits="userSpaceOnUse">
<stop stop-color="#292929"/>
<stop offset="1" stop-color="#121212" stop-opacity="0.94"/>
</linearGradient>
<linearGradient id="paint2_linear" x1="133.755" y1="4.69148" x2="133.755" y2="96.8053" gradientUnits="userSpaceOnUse">
<stop stop-color="#292929"/>
<stop offset="1" stop-color="#121212"/>
</linearGradient>
<clipPath id="clip0">
<rect width="38.3807" height="62.9444" fill="white" transform="translate(112.569 23.4214)"/>
</clipPath>
<clipPath id="clip1">
<rect width="42.0653" height="62.9444" fill="white" transform="translate(112.569 19.4298)"/>
</clipPath>
</defs>
</svg>
