<svg width="256" height="257" viewBox="0 0 256 257" fill="none" xmlns="http://www.w3.org/2000/svg">
<g filter="url(#filter0_d)">
<rect x="32" y="7" width="192" height="192" rx="41.6" fill="url(#paint0_linear)"/>
</g>
<g filter="url(#filter1_di)">
<path d="M122.953 40.5332C124.549 39.6404 126.348 39.1716 128.177 39.1716C130.007 39.1716 131.805 39.6404 133.402 40.5332L181.139 67.5009C182.635 68.3525 183.881 69.5818 184.753 71.066C185.624 72.5502 186.091 74.2372 186.105 75.9583V130.053C186.076 131.841 185.565 133.587 184.626 135.108C183.687 136.629 182.354 137.869 180.769 138.696L133.204 165.53C131.577 166.429 129.74 166.875 127.882 166.824C126.024 166.772 124.214 166.224 122.64 165.236L108.368 156.989C107.323 156.522 106.385 155.847 105.611 155.004C106.217 154.187 107.302 154.085 108.183 153.728C110.14 153.029 112.026 152.148 113.819 151.098C114.045 150.965 114.305 150.902 114.567 150.918C114.828 150.934 115.079 151.028 115.287 151.187C119.347 153.517 123.374 155.917 127.459 158.227C128.327 158.732 129.208 158.062 129.949 157.653C145.514 148.853 161.082 140.066 176.652 131.292C176.93 131.153 177.16 130.934 177.311 130.663C177.462 130.392 177.529 130.082 177.501 129.773C177.514 111.93 177.516 94.0857 177.508 76.2391C177.536 75.8924 177.455 75.5455 177.276 75.2469C177.098 74.9483 176.831 74.7128 176.512 74.5732C160.708 65.6712 144.908 56.7649 129.112 47.8544C128.838 47.6661 128.513 47.5653 128.181 47.5653C127.848 47.5653 127.523 47.6661 127.249 47.8544C111.449 56.7564 95.6533 65.6648 79.862 74.5796C79.5415 74.7155 79.2721 74.949 79.0921 75.247C78.9122 75.545 78.8309 75.8922 78.8599 76.2391V129.773C78.8329 130.081 78.9011 130.39 79.0552 130.658C79.2092 130.926 79.4418 131.141 79.7216 131.272C83.9343 133.664 88.1534 136.047 92.3789 138.421C93.5493 139.145 94.8593 139.613 96.2232 139.796C97.5871 139.978 98.9741 139.871 100.294 139.481C101.439 139.05 102.425 138.279 103.12 137.272C103.815 136.264 104.185 135.069 104.181 133.845C104.2 116.1 104.168 98.3559 104.194 80.6242C104.189 80.4359 104.225 80.2489 104.298 80.0752C104.37 79.9016 104.479 79.7452 104.616 79.6163C104.754 79.4875 104.917 79.389 105.094 79.3273C105.272 79.2656 105.461 79.242 105.649 79.2582C107.679 79.2455 109.702 79.2327 111.732 79.2646C111.929 79.2739 112.122 79.3246 112.298 79.4134C112.474 79.5022 112.63 79.6272 112.754 79.7802C112.879 79.9332 112.97 80.1107 113.022 80.3012C113.073 80.4917 113.084 80.6909 113.053 80.8859C113.047 98.7388 113.072 116.592 113.04 134.438C113.176 136.865 112.659 139.283 111.542 141.441C110.425 143.598 108.749 145.417 106.689 146.706C103.939 147.988 100.928 148.612 97.8947 148.529C94.8614 148.445 91.8892 147.658 89.2129 146.228C84.5726 143.911 80.1492 141.185 75.5982 138.696C74.0132 137.87 72.681 136.63 71.7428 135.109C70.8045 133.587 70.2951 131.841 70.2685 130.053V75.9583C70.2821 74.2025 70.7651 72.4824 71.6675 70.9762C72.5698 69.4701 73.8587 68.2327 75.4003 67.3924C91.2555 58.4436 107.108 49.4905 122.959 40.5332H122.953Z" fill="#06BE5B"/>
<path d="M136.785 78.0009C143.791 77.0957 150.911 78.1865 157.325 81.1476C159.65 82.5342 161.571 84.5039 162.9 86.8617C164.229 89.2195 164.919 91.8836 164.902 94.59C164.812 94.9286 164.603 95.2234 164.314 95.4204C164.024 95.6173 163.673 95.7033 163.325 95.6624C161.315 95.6624 159.31 95.6879 157.306 95.6496C156.919 95.6258 156.555 95.458 156.286 95.1792C156.016 94.9004 155.861 94.5308 155.851 94.1432C155.623 92.8329 155.113 91.5878 154.356 90.4944C153.598 89.401 152.612 88.4855 151.466 87.8114C147.65 86.2948 143.529 85.7042 139.44 86.088C136.427 85.9943 133.447 86.7366 130.83 88.2327C129.929 88.9318 129.269 89.8958 128.944 90.9892C128.619 92.0825 128.644 93.2503 129.017 94.3283C129.662 95.8602 131.43 96.3517 132.879 96.8049C141.215 98.9879 150.049 98.7708 158.219 101.637C159.974 102.125 161.594 103.009 162.955 104.221C164.316 105.432 165.381 106.939 166.07 108.626C166.889 111.018 167.087 113.58 166.645 116.069C166.202 118.559 165.135 120.896 163.542 122.86C160.661 125.854 156.916 127.873 152.832 128.636C147.512 129.717 142.056 129.95 136.664 129.326C131.489 129.029 126.528 127.16 122.443 123.971C120.824 122.484 119.554 120.658 118.723 118.623C117.893 116.588 117.521 114.395 117.636 112.2C117.677 111.848 117.854 111.526 118.13 111.304C118.406 111.082 118.758 110.977 119.111 111.013C121.134 110.994 123.151 110.988 125.175 111.013C125.362 111.01 125.548 111.044 125.722 111.112C125.896 111.181 126.054 111.284 126.189 111.415C126.323 111.545 126.43 111.701 126.503 111.873C126.577 112.045 126.615 112.23 126.617 112.417C126.717 113.669 127.071 114.886 127.66 115.995C128.248 117.104 129.058 118.08 130.038 118.864C134.365 120.993 139.199 121.873 143.998 121.405C148.016 121.711 152.026 120.73 155.449 118.603C156.237 117.834 156.811 116.872 157.113 115.813C157.416 114.753 157.436 113.634 157.172 112.564C156.674 110.777 154.81 109.947 153.208 109.405C144.974 106.801 136.051 107.745 127.9 104.809C126.191 104.307 124.61 103.441 123.268 102.27C121.926 101.098 120.854 99.6499 120.126 98.024C119.19 95.5994 118.953 92.9607 119.443 90.4082C119.932 87.8557 121.129 85.4919 122.896 83.5859C126.747 80.185 131.651 78.2129 136.785 78.0009Z" fill="#06BE5B"/>
</g>
<defs>
<filter id="filter0_d" x="3.8147e-06" y="0.600002" width="256" height="256" filterUnits="userSpaceOnUse" color-interpolation-filters="sRGB">
<feFlood flood-opacity="0" result="BackgroundImageFix"/>
<feColorMatrix in="SourceAlpha" type="matrix" values="0 0 0 0 0 0 0 0 0 0 0 0 0 0 0 0 0 0 127 0"/>
<feOffset dy="25.6"/>
<feGaussianBlur stdDeviation="16"/>
<feColorMatrix type="matrix" values="0 0 0 0 0 0 0 0 0 0 0 0 0 0 0 0 0 0 0.25 0"/>
<feBlend mode="normal" in2="BackgroundImageFix" result="effect1_dropShadow"/>
<feBlend mode="normal" in="SourceGraphic" in2="effect1_dropShadow" result="shape"/>
</filter>
<filter id="filter1_di" x="60.1632" y="29.0664" width="136.047" height="147.867" filterUnits="userSpaceOnUse" color-interpolation-filters="sRGB">
<feFlood flood-opacity="0" result="BackgroundImageFix"/>
<feColorMatrix in="SourceAlpha" type="matrix" values="0 0 0 0 0 0 0 0 0 0 0 0 0 0 0 0 0 0 127 0"/>
<feOffset/>
<feGaussianBlur stdDeviation="5.05263"/>
<feColorMatrix type="matrix" values="0 0 0 0 0 0 0 0 0 0 0 0 0 0 0 0 0 0 0.25 0"/>
<feBlend mode="normal" in2="BackgroundImageFix" result="effect1_dropShadow"/>
<feBlend mode="normal" in="SourceGraphic" in2="effect1_dropShadow" result="shape"/>
<feColorMatrix in="SourceAlpha" type="matrix" values="0 0 0 0 0 0 0 0 0 0 0 0 0 0 0 0 0 0 127 0" result="hardAlpha"/>
<feOffset dy="10.1053"/>
<feGaussianBlur stdDeviation="5.05263"/>
<feComposite in2="hardAlpha" operator="arithmetic" k2="-1" k3="1"/>
<feColorMatrix type="matrix" values="0 0 0 0 0.054902 0 0 0 0 0.913725 0 0 0 0 0.780392 0 0 0 0.4 0"/>
<feBlend mode="normal" in2="shape" result="effect2_innerShadow"/>
</filter>
<linearGradient id="paint0_linear" x1="128" y1="7" x2="128" y2="199" gradientUnits="userSpaceOnUse">
<stop stop-color="#292929"/>
<stop offset="1" stop-color="#121212" stop-opacity="0.94"/>
</linearGradient>
</defs>
</svg>
