<svg width="256" height="257" viewBox="0 0 256 257" fill="none" xmlns="http://www.w3.org/2000/svg">
<g filter="url(#filter0_d)">
<rect x="32" y="7" width="192" height="192" rx="41.6" fill="url(#paint0_linear)"/>
</g>
<g style="mix-blend-mode:overlay" opacity="0.5" filter="url(#filter1_f)">
<g clip-path="url(#clip0)">
<path d="M103.844 177.24C114.882 177.24 123.84 167.444 123.84 155.373V133.507H103.844C92.8063 133.507 83.8481 143.303 83.8481 155.373C83.8481 167.444 92.8063 177.24 103.844 177.24Z" fill="black"/>
<path d="M83.8481 111.64C83.8481 99.5698 92.8063 89.7736 103.844 89.7736H123.84V133.507H103.844C92.8063 133.507 83.8481 123.711 83.8481 111.64Z" fill="black"/>
<path d="M83.8506 67.9067C83.8506 55.8363 92.8088 46.04 103.847 46.04H123.843V89.7734H103.847C92.8088 89.7734 83.8506 79.9771 83.8506 67.9067Z" fill="black"/>
<path d="M123.84 46.04H143.836C154.874 46.04 163.832 55.8363 163.832 67.9067C163.832 79.9771 154.874 89.7734 143.836 89.7734H123.84V46.04Z" fill="black"/>
<path d="M163.832 111.64C163.832 123.711 154.874 133.507 143.836 133.507C132.798 133.507 123.84 123.711 123.84 111.64C123.84 99.5698 132.798 89.7736 143.836 89.7736C154.874 89.7736 163.832 99.5698 163.832 111.64Z" fill="black"/>
</g>
</g>
<g filter="url(#filter2_iiiii)">
<g clip-path="url(#clip1)">
<path d="M105.764 168.92C117.862 168.92 127.68 159.124 127.68 147.053V125.187H105.764C93.6671 125.187 83.8489 134.983 83.8489 147.053C83.8489 159.124 93.6671 168.92 105.764 168.92Z" fill="#0ACF83"/>
<path d="M83.8489 103.32C83.8489 91.2498 93.6671 81.4535 105.764 81.4535H127.68V125.187H105.764C93.6671 125.187 83.8489 115.391 83.8489 103.32Z" fill="#A259FF"/>
<path d="M83.8499 59.5868C83.8499 47.5164 93.6681 37.7201 105.766 37.7201H127.681V81.4534H105.766C93.6681 81.4534 83.8499 71.6572 83.8499 59.5868Z" fill="#F24E1E"/>
<path d="M127.68 37.7201H149.596C161.693 37.7201 171.511 47.5164 171.511 59.5868C171.511 71.6572 161.693 81.4534 149.596 81.4534H127.68V37.7201Z" fill="#FF7262"/>
<path d="M171.511 103.32C171.511 115.391 161.693 125.187 149.596 125.187C137.498 125.187 127.68 115.391 127.68 103.32C127.68 91.2498 137.498 81.4535 149.596 81.4535C161.693 81.4535 171.511 91.2498 171.511 103.32Z" fill="#1ABCFE"/>
</g>
</g>
<defs>
<filter id="filter0_d" x="3.8147e-06" y="0.600002" width="256" height="256" filterUnits="userSpaceOnUse" color-interpolation-filters="sRGB">
<feFlood flood-opacity="0" result="BackgroundImageFix"/>
<feColorMatrix in="SourceAlpha" type="matrix" values="0 0 0 0 0 0 0 0 0 0 0 0 0 0 0 0 0 0 127 0"/>
<feOffset dy="25.6"/>
<feGaussianBlur stdDeviation="16"/>
<feColorMatrix type="matrix" values="0 0 0 0 0 0 0 0 0 0 0 0 0 0 0 0 0 0 0.25 0"/>
<feBlend mode="normal" in2="BackgroundImageFix" result="effect1_dropShadow"/>
<feBlend mode="normal" in="SourceGraphic" in2="effect1_dropShadow" result="shape"/>
</filter>
<filter id="filter1_f" x="77.4401" y="39.64" width="92.8" height="144" filterUnits="userSpaceOnUse" color-interpolation-filters="sRGB">
<feFlood flood-opacity="0" result="BackgroundImageFix"/>
<feBlend mode="normal" in="SourceGraphic" in2="BackgroundImageFix" result="shape"/>
<feGaussianBlur stdDeviation="3.2" result="effect1_foregroundBlur"/>
</filter>
<filter id="filter2_iiiii" x="83.8401" y="18.5201" width="87.68" height="163.2" filterUnits="userSpaceOnUse" color-interpolation-filters="sRGB">
<feFlood flood-opacity="0" result="BackgroundImageFix"/>
<feBlend mode="normal" in="SourceGraphic" in2="BackgroundImageFix" result="shape"/>
<feColorMatrix in="SourceAlpha" type="matrix" values="0 0 0 0 0 0 0 0 0 0 0 0 0 0 0 0 0 0 127 0" result="hardAlpha"/>
<feOffset dy="12.8"/>
<feGaussianBlur stdDeviation="12.8"/>
<feComposite in2="hardAlpha" operator="arithmetic" k2="-1" k3="1"/>
<feColorMatrix type="matrix" values="0 0 0 0 1 0 0 0 0 1 0 0 0 0 1 0 0 0 0.5 0"/>
<feBlend mode="overlay" in2="shape" result="effect1_innerShadow"/>
<feColorMatrix in="SourceAlpha" type="matrix" values="0 0 0 0 0 0 0 0 0 0 0 0 0 0 0 0 0 0 127 0" result="hardAlpha"/>
<feOffset dy="-19.2"/>
<feGaussianBlur stdDeviation="19.2"/>
<feComposite in2="hardAlpha" operator="arithmetic" k2="-1" k3="1"/>
<feColorMatrix type="matrix" values="0 0 0 0 0 0 0 0 0 0 0 0 0 0 0 0 0 0 0.5 0"/>
<feBlend mode="overlay" in2="effect1_innerShadow" result="effect2_innerShadow"/>
<feColorMatrix in="SourceAlpha" type="matrix" values="0 0 0 0 0 0 0 0 0 0 0 0 0 0 0 0 0 0 127 0" result="hardAlpha"/>
<feOffset dy="3.2"/>
<feGaussianBlur stdDeviation="4.8"/>
<feComposite in2="hardAlpha" operator="arithmetic" k2="-1" k3="1"/>
<feColorMatrix type="matrix" values="0 0 0 0 1 0 0 0 0 1 0 0 0 0 1 0 0 0 0.7 0"/>
<feBlend mode="overlay" in2="effect2_innerShadow" result="effect3_innerShadow"/>
<feColorMatrix in="SourceAlpha" type="matrix" values="0 0 0 0 0 0 0 0 0 0 0 0 0 0 0 0 0 0 127 0" result="hardAlpha"/>
<feOffset dy="-25.6"/>
<feGaussianBlur stdDeviation="6.4"/>
<feComposite in2="hardAlpha" operator="arithmetic" k2="-1" k3="1"/>
<feColorMatrix type="matrix" values="0 0 0 0 0 0 0 0 0 0 0 0 0 0 0 0 0 0 0.15 0"/>
<feBlend mode="overlay" in2="effect3_innerShadow" result="effect4_innerShadow"/>
<feColorMatrix in="SourceAlpha" type="matrix" values="0 0 0 0 0 0 0 0 0 0 0 0 0 0 0 0 0 0 127 0" result="hardAlpha"/>
<feOffset dy="12.8"/>
<feGaussianBlur stdDeviation="6.4"/>
<feComposite in2="hardAlpha" operator="arithmetic" k2="-1" k3="1"/>
<feColorMatrix type="matrix" values="0 0 0 0 1 0 0 0 0 1 0 0 0 0 1 0 0 0 0.25 0"/>
<feBlend mode="overlay" in2="effect4_innerShadow" result="effect5_innerShadow"/>
</filter>
<linearGradient id="paint0_linear" x1="128" y1="7" x2="128" y2="199" gradientUnits="userSpaceOnUse">
<stop stop-color="#292929"/>
<stop offset="1" stop-color="#121212" stop-opacity="0.94"/>
</linearGradient>
<clipPath id="clip0">
<rect width="80" height="131.2" fill="white" transform="translate(83.8401 46.04)"/>
</clipPath>
<clipPath id="clip1">
<rect width="87.68" height="131.2" fill="white" transform="translate(83.8401 37.7201)"/>
</clipPath>
</defs>
</svg>
