<svg width="337" height="107" viewBox="0 0 337 107" fill="none" xmlns="http://www.w3.org/2000/svg">
<path d="M47.1614 66H36.9683V45.4789H15.0296V66H4.83658V17.2961H15.0296V37.0747H36.9683V17.2961H47.1614V66ZM68.6585 59.4521C70.8411 59.4521 72.6862 58.8221 74.1938 57.562C75.7238 56.2795 76.4889 54.6706 76.4889 52.7355V50.1029L68.861 50.5754C67.0159 50.7104 65.587 51.1717 64.5745 51.9592C63.5844 52.7468 63.0894 53.7818 63.0894 55.0644C63.0894 56.4145 63.5957 57.4833 64.6082 58.2708C65.6208 59.0584 66.9709 59.4521 68.6585 59.4521ZM65.4183 66.5738C61.9306 66.5738 59.0392 65.55 56.7441 63.5024C54.4489 61.4548 53.3014 58.8221 53.3014 55.6044C53.3014 52.3192 54.5164 49.7429 56.9466 47.8753C59.3767 46.0077 62.8531 44.9388 67.3759 44.6688L76.4889 44.1288V41.7324C76.4889 40.0673 75.9376 38.7623 74.835 37.8172C73.755 36.8722 72.2812 36.3996 70.4136 36.3996C68.6135 36.3996 67.1396 36.8046 65.9921 37.6147C64.867 38.4247 64.1807 39.516 63.9332 40.8886H54.9215C55.1015 37.3334 56.6203 34.4758 59.478 32.3157C62.3356 30.133 66.1271 29.0417 70.8523 29.0417C75.4876 29.0417 79.2003 30.1443 81.9904 32.3494C84.7806 34.5545 86.1757 37.4797 86.1757 41.1249V66H76.6576V60.4647H76.4551C75.4651 62.3548 73.9575 63.8511 71.9324 64.9537C69.9073 66.0338 67.7359 66.5738 65.4183 66.5738ZM126.506 43.285H117.36C117.067 41.3274 116.291 39.7523 115.031 38.5597C113.793 37.3672 112.184 36.7709 110.204 36.7709C107.751 36.7709 105.816 37.7609 104.399 39.7411C103.004 41.6987 102.306 44.4101 102.306 47.8753C102.306 51.4079 103.004 54.1531 104.399 56.1107C105.816 58.0683 107.763 59.0471 110.238 59.0471C112.195 59.0471 113.793 58.4958 115.031 57.3933C116.268 56.2682 117.044 54.7156 117.36 52.7355H126.54C126.292 57.0108 124.684 60.4197 121.713 62.9623C118.743 65.505 114.884 66.7763 110.137 66.7763C104.646 66.7763 100.304 65.1 97.1084 61.7473C93.9132 58.3721 92.3156 53.7481 92.3156 47.8753C92.3156 42.0924 93.9132 37.5134 97.1084 34.1383C100.326 30.7406 104.646 29.0417 110.069 29.0417C114.884 29.0417 118.766 30.3693 121.713 33.0244C124.684 35.6796 126.281 39.0998 126.506 43.285ZM142.603 44.3313L154.889 29.818H166.061L152.256 45.3439L166.736 66H155.395L145.033 51.2842L142.468 54.0518V66H132.612V17.2961H142.468V44.3313H142.603ZM185.667 58.3046C188.143 58.3046 190.1 57.382 191.54 55.5369C193.003 53.6693 193.734 51.1042 193.734 47.8415C193.734 44.5788 193.003 41.9799 191.54 40.0448C190.078 38.1097 188.12 37.1422 185.667 37.1422C183.237 37.1422 181.302 38.1097 179.862 40.0448C178.445 41.9574 177.736 44.5563 177.736 47.8415C177.736 51.1267 178.445 53.6918 179.862 55.5369C181.28 57.382 183.215 58.3046 185.667 58.3046ZM185.499 79.6357C180.796 79.6357 176.926 78.6007 173.888 76.5306C170.873 74.483 169.163 71.8278 168.758 68.5651H178.411C178.793 69.8252 179.648 70.8378 180.976 71.6028C182.326 72.3904 183.924 72.7841 185.769 72.7841C188.266 72.7841 190.213 72.1428 191.608 70.8603C193.003 69.6002 193.7 67.9014 193.7 65.7637V59.4184H193.498C192.643 61.376 191.214 62.9511 189.211 64.1436C187.209 65.3137 184.914 65.8987 182.326 65.8987C177.871 65.8987 174.304 64.2787 171.627 61.0385C168.972 57.7983 167.644 53.3768 167.644 47.774C167.644 42.0362 168.972 37.5134 171.627 34.2058C174.282 30.8981 177.905 29.2442 182.495 29.2442C185.06 29.2442 187.321 29.863 189.279 31.1006C191.237 32.3382 192.699 34.0145 193.667 36.1296H193.835V29.818H203.556V65.4937C203.556 69.7915 201.902 73.2229 198.594 75.788C195.309 78.3532 190.944 79.6357 185.499 79.6357ZM211.08 66V29.818H220.598V36.3321H220.8C221.43 34.037 222.488 32.2819 223.973 31.0668C225.458 29.8518 227.269 29.2442 229.407 29.2442C230.442 29.2442 231.376 29.368 232.208 29.6155V38.2897C231.286 37.9072 230.093 37.7159 228.631 37.7159C226.201 37.7159 224.31 38.4247 222.96 39.8423C221.61 41.2599 220.935 43.24 220.935 45.7826V66H211.08ZM237.505 66V29.818H247.36V66H237.505ZM246.179 24.3502C245.166 25.3403 243.917 25.8353 242.432 25.8353C240.947 25.8353 239.698 25.3403 238.686 24.3502C237.673 23.3602 237.167 22.1563 237.167 20.7388C237.167 19.2987 237.673 18.0949 238.686 17.1273C239.698 16.1373 240.947 15.6422 242.432 15.6422C243.917 15.6422 245.166 16.1373 246.179 17.1273C247.191 18.0949 247.698 19.2987 247.698 20.7388C247.698 22.1563 247.191 23.3602 246.179 24.3502ZM268.452 66.5738C263.929 66.5738 260.34 64.8974 257.685 61.5448C255.03 58.1921 253.703 53.6243 253.703 47.8415C253.703 42.1037 255.03 37.5697 257.685 34.2395C260.363 30.9093 263.974 29.2442 268.52 29.2442C271.085 29.2442 273.335 29.863 275.27 31.1006C277.228 32.3382 278.656 33.9807 279.557 36.0284H279.759V17.2961H289.615V66H279.894V59.7897H279.725C278.825 61.8373 277.374 63.4799 275.371 64.7174C273.369 65.955 271.062 66.5738 268.452 66.5738ZM271.794 37.1422C269.318 37.1422 267.361 38.1097 265.921 40.0448C264.503 41.9799 263.794 44.6013 263.794 47.909C263.794 51.2392 264.503 53.8606 265.921 55.7732C267.361 57.6858 269.318 58.6421 271.794 58.6421C274.246 58.6421 276.193 57.6858 277.633 55.7732C279.095 53.8381 279.827 51.2167 279.827 47.909C279.827 44.6238 279.095 42.0137 277.633 40.0786C276.193 38.121 274.246 37.1422 271.794 37.1422Z" fill="white"/>
<path d="M264.62 97.3323C264.091 97.8611 263.45 98.1255 262.696 98.1255C261.942 98.1255 261.301 97.8611 260.772 97.3323C260.243 96.8035 259.979 96.1623 259.979 95.4085C259.979 94.6547 260.243 94.0134 260.772 93.4846C261.301 92.9558 261.942 92.6914 262.696 92.6914C263.45 92.6914 264.091 92.9558 264.62 93.4846C265.148 94.0134 265.413 94.6547 265.413 95.4085C265.413 96.1623 265.148 96.8035 264.62 97.3323ZM280.75 79.5451C283.045 79.5451 284.851 80.372 286.167 82.0259C287.495 83.6797 288.159 85.9636 288.159 88.8775C288.159 91.7801 287.506 94.064 286.201 95.7291C284.896 97.3829 283.107 98.2099 280.835 98.2099C279.541 98.2099 278.399 97.9173 277.409 97.3323C276.43 96.736 275.699 95.9204 275.215 94.8853H275.114V103.83H270.186V79.832H275.046V82.9878H275.147C275.642 81.9077 276.374 81.0639 277.341 80.4564C278.32 79.8489 279.456 79.5451 280.75 79.5451ZM279.096 94.244C280.323 94.244 281.296 93.7602 282.016 92.7927C282.747 91.8251 283.113 90.5201 283.113 88.8775C283.113 87.2349 282.747 85.9298 282.016 84.9623C281.296 83.9835 280.323 83.4941 279.096 83.4941C277.893 83.4941 276.925 83.9891 276.194 84.9791C275.462 85.9579 275.097 87.2574 275.097 88.8775C275.097 90.5088 275.457 91.8139 276.177 92.7927C276.908 93.7602 277.881 94.244 279.096 94.244ZM296.898 87.0886L303.04 79.832H308.626L301.724 87.5949L308.964 97.923H303.294L298.113 90.5651L296.83 91.9489V97.923H291.902V73.571H296.83V87.0886H296.898ZM318.968 94.0753C320.206 94.0753 321.185 93.614 321.905 92.6914C322.636 91.7576 323.002 90.4751 323.002 88.8437C323.002 87.2124 322.636 85.9129 321.905 84.9454C321.174 83.9778 320.195 83.4941 318.968 83.4941C317.753 83.4941 316.786 83.9778 316.066 84.9454C315.357 85.9017 315.003 87.2011 315.003 88.8437C315.003 90.4863 315.357 91.7689 316.066 92.6914C316.775 93.614 317.742 94.0753 318.968 94.0753ZM318.884 104.741C316.533 104.741 314.598 104.223 313.079 103.188C311.571 102.164 310.716 100.837 310.514 99.2055H315.34C315.531 99.8356 315.959 100.342 316.623 100.724C317.298 101.118 318.096 101.315 319.019 101.315C320.268 101.315 321.241 100.994 321.939 100.353C322.636 99.7231 322.985 98.8737 322.985 97.8048V94.6322H322.884C322.456 95.611 321.742 96.3985 320.74 96.9948C319.739 97.5798 318.591 97.8723 317.298 97.8723C315.07 97.8723 313.287 97.0623 311.948 95.4422C310.62 93.8221 309.957 91.6114 309.957 88.81C309.957 85.9411 310.62 83.6797 311.948 82.0259C313.276 80.372 315.087 79.5451 317.382 79.5451C318.665 79.5451 319.795 79.8545 320.774 80.4733C321.753 81.092 322.484 81.9302 322.968 82.9878H323.052V79.832H327.913V97.6698C327.913 99.8187 327.086 101.534 325.432 102.817C323.789 104.1 321.607 104.741 318.884 104.741Z" fill="white"/>
</svg>
